<svg id="ALS_logo_DIAP" data-name="ALS logo DIAP" xmlns="http://www.w3.org/2000/svg" viewBox="0 0 630.36 380.69"><defs><style>.cls-1{fill:#ff8c00;}.cls-2{fill:#fff;}</style></defs><rect class="cls-1" width="630.36" height="380.69"/><path class="cls-2" d="M608.35,444a72.25,72.25,0,0,1-72-72.22V261.37h24.42V371.79a46.4,46.4,0,0,0,13.92,33.58,47.4,47.4,0,0,0,33.64,14.22h60.9V444Z" transform="translate(-273.11 -200.36)"/><path class="cls-2" d="M693.9,444V430.7h100a35.51,35.51,0,0,0,35.47-35.46c0-20.05-15.58-35.74-35.47-35.74H732.26a49,49,0,0,1,0-98.05h96.59v13.28H732.26c-19.26,0-34.5,15.17-35.46,35.29a3.53,3.53,0,0,0,0,.46c1.54,20.37,16.78,35.73,35.45,35.73h61.67a49,49,0,0,1,34.56,83.47A48.31,48.31,0,0,1,793.93,444Z" transform="translate(-273.11 -200.36)"/><path class="cls-2" d="M370.67,444l51.54-146.42a4.84,4.84,0,0,1,5.1-3.62,5.93,5.93,0,0,1,3.18.87,4.84,4.84,0,0,1,1.93,2.75L484,444h38.33L464.74,282.58c-2.86-8.38-7.76-14.71-14.55-18.83a46.1,46.1,0,0,0-45.92,0c-6.68,4.12-11.53,10.45-14.37,18.8L332.34,444Z" transform="translate(-273.11 -200.36)"/><path class="cls-2" d="M355.93,512.75a13.93,13.93,0,0,1-10.71-4.86l3.22-3.14a11,11,0,0,0,7.83,3.57c4.21,0,6.23-1.46,6.23-4.39,0-2.32-1.76-3.48-6.79-5-6.36-1.9-9.42-3.49-9.42-8.86,0-5.2,4.39-8.39,9.94-8.39a13.47,13.47,0,0,1,9.84,4.09L362.89,489a9.13,9.13,0,0,0-7-2.88c-3.52,0-5,1.72-5,3.74s1.38,3.14,6.58,4.69c5.93,1.81,9.63,3.7,9.63,9.07S363.62,512.75,355.93,512.75Z" transform="translate(-273.11 -200.36)"/><path class="cls-2" d="M382.89,511.72a9,9,0,0,1-4.35,1c-3.14,0-5.07-1.94-5.07-6v-13h-3.23v-4h3.23v-6.45l4.34-2.32v8.77h5.59v4h-5.59V506c0,2.11.69,2.71,2.32,2.71a7,7,0,0,0,3.27-.91Z" transform="translate(-273.11 -200.36)"/><path class="cls-2" d="M391.44,486.78a2.86,2.86,0,1,1,2.84-2.84A2.87,2.87,0,0,1,391.44,486.78Zm-2.23,25.5V489.7h4.43v22.58Z" transform="translate(-273.11 -200.36)"/><path class="cls-2" d="M414.36,496.19c-1.85-1.89-3.48-2.75-5.5-2.75-3.23,0-5.29,2.88-5.29,7.48,0,4.43,1.89,7.62,5.42,7.62,2.1,0,3.35-1,5.11-2.8l2.84,2.8c-1.76,2.23-4,4.21-8.08,4.21-5.51,0-9.76-4.64-9.76-11.7,0-7.48,4.38-11.82,9.89-11.82a9.94,9.94,0,0,1,8,3.83Z" transform="translate(-273.11 -200.36)"/><path class="cls-2" d="M436.33,512.28V499.51c0-4.56-1.72-6.2-4.64-6.2s-4.64,2.11-4.64,5.77v13.2h-4.43v-29l4.43-2.32v10.92a6.9,6.9,0,0,1,5.67-2.62c5.25,0,8,3.44,8,10.1v12.95Z" transform="translate(-273.11 -200.36)"/><path class="cls-2" d="M457.7,511.72a9,9,0,0,1-4.34,1c-3.14,0-5.08-1.94-5.08-6v-13h-3.22v-4h3.22v-6.45l4.34-2.32v8.77h5.59v4h-5.59V506c0,2.11.69,2.71,2.33,2.71a7,7,0,0,0,3.26-.91Z" transform="translate(-273.11 -200.36)"/><path class="cls-2" d="M466.47,486.78a2.86,2.86,0,1,1,2.84-2.84A2.87,2.87,0,0,1,466.47,486.78Zm-2.23,25.5V489.7h4.42v22.58Z" transform="translate(-273.11 -200.36)"/><path class="cls-2" d="M489.13,512.28V499.51c0-4.56-1.72-6.2-4.64-6.2s-4.65,2.11-4.65,5.77v13.2h-4.42V489.7h4.42v2.15a6.94,6.94,0,0,1,5.68-2.62c5.25,0,8,3.44,8,10.1v12.95Z" transform="translate(-273.11 -200.36)"/><path class="cls-2" d="M507.24,520.58l-1.51-3.36c6.36-.3,7.74-2,7.74-6.71v-.38a8.51,8.51,0,0,1-5.85,2.62c-4.81,0-8.68-3.53-8.68-12.13,0-7.74,4.25-11.39,8.9-11.39a7.8,7.8,0,0,1,5.63,2.58V489.7h4.43v20.43C517.9,517,515.41,520.32,507.24,520.58Zm6.32-24.3a7.26,7.26,0,0,0-5.29-3c-3.18,0-4.9,2.41-4.9,7.18,0,5.68,1.8,8.17,5.07,8.17a6.91,6.91,0,0,0,5.12-2.88Z" transform="translate(-273.11 -200.36)"/><path class="cls-2" d="M556.34,512.28l-2.54-7.14h-12l-2.49,7.14h-4.69l10.84-30.1h4.77l11,30.1ZM550,494.17c-.73-2.15-1.93-5.63-2.28-6.92-.34,1.29-1.42,4.73-2.19,7l-2.41,6.88h9.29Z" transform="translate(-273.11 -200.36)"/><path class="cls-2" d="M566.45,512.28v-30.1H571v25.67h15v4.43Z" transform="translate(-273.11 -200.36)"/><path class="cls-2" d="M599.76,512.75a13.93,13.93,0,0,1-10.7-4.86l3.23-3.14a11,11,0,0,0,7.82,3.57c4.21,0,6.23-1.46,6.23-4.39,0-2.32-1.76-3.48-6.79-5-6.36-1.9-9.41-3.49-9.41-8.86,0-5.2,4.38-8.39,9.93-8.39a13.47,13.47,0,0,1,9.84,4.09L606.73,489a9.13,9.13,0,0,0-7-2.88c-3.52,0-5,1.72-5,3.74s1.37,3.14,6.57,4.69c5.93,1.81,9.63,3.7,9.63,9.07S607.46,512.75,599.76,512.75Z" transform="translate(-273.11 -200.36)"/><path class="cls-2" d="M647,512.28,635,493.4c-.73-1.12-1.76-2.92-2.24-3.7,0,1.12,0,5.29,0,7v15.61H628.4v-30.1H633l11.44,18.36c.77,1.24,2.06,3.48,2.49,4.25,0-1.11,0-5.41,0-7.09V482.18h4.39v30.1Z" transform="translate(-273.11 -200.36)"/><path class="cls-2" d="M676.65,502.56H661.73c.47,4.34,2.92,6.19,5.67,6.19a7.89,7.89,0,0,0,4.9-1.81l2.63,2.84a10.53,10.53,0,0,1-7.79,3c-5.29,0-9.76-4.26-9.76-11.74,0-7.65,4-11.78,9.89-11.78,6.41,0,9.51,5.2,9.51,11.31C676.78,501.35,676.69,502.09,676.65,502.56ZM667,493.23c-3,0-4.77,2.06-5.16,5.67H672.3C672.09,495.81,670.63,493.23,667,493.23Z" transform="translate(-273.11 -200.36)"/><path class="cls-2" d="M695.87,512.28v-2.15a8.64,8.64,0,0,1-5.89,2.62c-4.86,0-8.69-3.53-8.69-12.13,0-7.74,4.21-11.39,8.9-11.39a8,8,0,0,1,5.68,2.58v-8.6l4.38-2.28v31.35Zm0-16a7.24,7.24,0,0,0-5.29-3c-3.18,0-4.9,2.41-4.9,7.18,0,5.68,1.8,8.17,5.07,8.17a6.91,6.91,0,0,0,5.12-2.88Z" transform="translate(-273.11 -200.36)"/><path class="cls-2" d="M725,502.56H710.06c.47,4.34,2.92,6.19,5.67,6.19a7.89,7.89,0,0,0,4.9-1.81l2.63,2.84a10.53,10.53,0,0,1-7.79,3c-5.28,0-9.76-4.26-9.76-11.74,0-7.65,4-11.78,9.89-11.78,6.41,0,9.51,5.2,9.51,11.31C725.11,501.35,725,502.09,725,502.56Zm-9.68-9.33c-3,0-4.77,2.06-5.16,5.67h10.49C720.42,495.81,719,493.23,715.3,493.23Z" transform="translate(-273.11 -200.36)"/><path class="cls-2" d="M742.86,494.39a6.54,6.54,0,0,0-3.39-.82c-2.8,0-4.43,2-4.43,5.81v12.9h-4.43V489.7H735v2.15a6.26,6.26,0,0,1,5.16-2.62,6.55,6.55,0,0,1,3.83.94Z" transform="translate(-273.11 -200.36)"/><path class="cls-2" d="M748.58,512.28v-29l4.43-2.32v31.35Z" transform="translate(-273.11 -200.36)"/><path class="cls-2" d="M772.49,512.28V510a8.88,8.88,0,0,1-6.19,2.71c-3.66,0-7.83-2.06-7.83-7.61,0-5,3.87-7.31,9-7.31a12.44,12.44,0,0,1,5,.86V497c0-2.45-1.5-3.83-4.26-3.83a11.4,11.4,0,0,0-5.89,1.42l-1.72-3.35a14,14,0,0,1,7.74-2c5,0,8.47,2.45,8.47,7.57v15.48Zm0-9.64a11.17,11.17,0,0,0-5.16-1c-2.84,0-4.64,1.29-4.64,3.35,0,2.24,1.42,3.74,4.34,3.74a7.08,7.08,0,0,0,5.46-2.88Z" transform="translate(-273.11 -200.36)"/><path class="cls-2" d="M796.91,512.28V499.51c0-4.56-1.72-6.2-4.64-6.2s-4.64,2.11-4.64,5.77v13.2H783.2V489.7h4.43v2.15a6.9,6.9,0,0,1,5.67-2.62c5.25,0,8,3.44,8,10.1v12.95Z" transform="translate(-273.11 -200.36)"/><path class="cls-2" d="M821.29,512.28v-2.15a8.6,8.6,0,0,1-5.89,2.62c-4.86,0-8.68-3.53-8.68-12.13,0-7.74,4.21-11.39,8.9-11.39a8,8,0,0,1,5.67,2.58v-8.6l4.39-2.28v31.35Zm.05-16a7.24,7.24,0,0,0-5.29-3c-3.18,0-4.9,2.41-4.9,7.18,0,5.68,1.8,8.17,5.07,8.17a6.91,6.91,0,0,0,5.12-2.88Z" transform="translate(-273.11 -200.36)"/></svg>